<?xml version="1.0" encoding="UTF-8" standalone="no"?>
<svg
   height="128"
   width="128"
   version="1.1"
   id="svg52"
   sodipodi:docname="icon.svg"
   inkscape:version="1.2.2 (732a01da63, 2022-12-09)"
   xmlns:inkscape="http://www.inkscape.org/namespaces/inkscape"
   xmlns:sodipodi="http://sodipodi.sourceforge.net/DTD/sodipodi-0.dtd"
   xmlns="http://www.w3.org/2000/svg"
   xmlns:svg="http://www.w3.org/2000/svg">
  <defs
     id="defs56" />
  <sodipodi:namedview
     id="namedview54"
     pagecolor="#ffffff"
     bordercolor="#000000"
     borderopacity="0.25"
     inkscape:showpageshadow="2"
     inkscape:pageopacity="0.0"
     inkscape:pagecheckerboard="0"
     inkscape:deskcolor="#d1d1d1"
     showgrid="false"
     inkscape:zoom="4.5796213"
     inkscape:cx="78.827479"
     inkscape:cy="65.725959"
     inkscape:window-width="1920"
     inkscape:window-height="1009"
     inkscape:window-x="-8"
     inkscape:window-y="-8"
     inkscape:window-maximized="1"
     inkscape:current-layer="svg52" />
  <path
     id="rect3651"
     style="fill:#fc7f7f;stroke-width:1.27098"
     d="m 92.881817,30.570116 4.585533,4.585532 c 0,0 -5.6615,7.271649 -9.544543,9.544541 -4.682766,2.741001 -12.506338,0.53262 -14.43667,4.24608 -5.229591,10.060381 6.742258,31.086448 -0.308808,38.137513 -7.205469,7.205469 -30.037966,-5.173242 -41.071168,1.080824 -3.672613,2.081784 -1.698378,11.78587 -4.78649,17.138724 -1.684611,2.92006 -7.151293,7.15129 -7.151293,7.15129 l -4.585532,-4.58553 c 0,0 5.584711,-4.32259 7.305695,-7.3057 3.088112,-5.352848 -0.569486,-12.868934 4.78649,-17.910735 9.462955,-8.907867 37.530473,3.144633 41.843184,-1.080821 3.575015,-3.502678 -8.690268,-29.183839 -1.312423,-37.597104 4.967751,-5.664937 10.880417,-1.552473 15.517491,-4.24608 3.733228,-2.168578 9.158534,-9.158534 9.158534,-9.158534 z"
     sodipodi:nodetypes="ccsssssccsssssc" />
  <circle
     style="fill:#fc7f7f;fill-opacity:1"
     id="path3706"
     cx="104.37545"
     cy="24.019455"
     r="10.481216" />
</svg>
